<?xml version="1.0" encoding="UTF-8"?>
<svg id="Layer_1" data-name="Layer 1" xmlns="http://www.w3.org/2000/svg" viewBox="0 0 173.96 155.4">
  <defs>
    <style>
      .cls-1 {
        fill: #2e3192;
      }

      .cls-1, .cls-2, .cls-3, .cls-4, .cls-5, .cls-6 {
        stroke-width: 0px;
      }

      .cls-2 {
        fill: #0071bc;
      }

      .cls-3 {
        fill: #00a99d;
      }

      .cls-4 {
        fill: #662d91;
      }

      .cls-5 {
        fill: #1b1464;
      }

      .cls-6 {
        fill: #00776b;
      }
    </style>
  </defs>
  <path class="cls-6" d="M43.36,0l43.53,12.41L130.34,0l40.43,11.47c2.12.58,3.19,1.93,3.19,4.05v135.6c0,1.38-.55,2.5-1.64,3.36-1.09.86-2.3,1.12-3.62.78l-38.36-12.33-43.45,12.41-43.53-12.5-38.1,12.41c-1.32.34-2.53.09-3.62-.78-1.09-.86-1.64-1.98-1.64-3.36V15.52c0-2.13,1.09-3.48,3.28-4.05L43.36,0Z"/>
  <path class="cls-3" d="M130.43,130.51v.17l28.79,8.79c1.38.34,2.63.09,3.75-.78,1.12-.86,1.68-1.98,1.68-3.36V24.83c0-2.13-1.06-3.48-3.19-4.05l-31.12-8.19v-.09l-43.45,12.24-43.53-12.24-31.21,8.28c-2.13.58-3.19,1.93-3.19,4.05v110.43c0,1.38.56,2.5,1.68,3.36s2.37,1.09,3.75.69l28.96-8.79,43.53,12.33,43.53-12.33Z"/>
  <path class="cls-5" d="M55.77,114.91v-2.84c0-4.31,1.92-7.44,5.78-9.4l3.79-1.9c1.9-.98,2.84-2.47,2.84-4.48,0-2.13-.95-3.62-2.84-4.48l-7.24-3.62c-1.5-.8-3.16-1.21-5-1.21h-2.76c-.52,0-.98-.17-1.38-.52l-11.29-11.29c-.4-.4-.6-.86-.6-1.38v-3.53c0-1.26.66-1.9,1.98-1.9h2.33c1.32,0,1.98.63,1.98,1.9v1.21c0,2.07,1.03,3.1,3.1,3.1s3.1-1.03,3.1-3.1v-1.21c0-1.26.63-1.9,1.9-1.9,2.87,0,5.31-1,7.33-3.02l1.81-1.81c.92-.92.92-1.84,0-2.76l-4.31-4.31c-.34-.34-.52-.8-.52-1.38v-2.24c0-2.07-1.03-3.1-3.1-3.1s-3.1,1.03-3.1,3.1-1.03,3.1-3.1,3.1-3.1-1.03-3.1-3.1v-1.21c0-1.26.63-1.9,1.9-1.9,1.38,0,2.01-.66,1.9-1.98l-.09-2.24c-.12-1.32.52-1.98,1.9-1.98h4.83c1.32,0,1.98-.63,1.98-1.9v-1.21c0-2.07,1.03-3.1,3.1-3.1s3.1,1.03,3.1,3.1v12.5c0,2.07,1.03,3.1,3.1,3.1s3.1-1.03,3.1-3.1v-2.33c0-.57.17-1.03.52-1.38l2.59-2.59c2.07-2.07,3.1-4.54,3.1-7.41,0-2.24-.79-4.15-2.37-5.73-1.58-1.58-3.49-2.37-5.73-2.37h-9.91c-4.54,0-8.36,1.67-11.47,5l-3.88,4.14c-2.01,2.18-4.51,3.28-7.5,3.28h-.69c-1.26,0-1.9-.63-1.9-1.9,0-1.15-.42-2.15-1.25-3.02-.83-.86-1.85-1.29-3.06-1.29h-3.79c-1.21,0-2.23.43-3.06,1.29-.83.86-1.25,1.87-1.25,3.02v2.33c0,3.85-1.38,7.16-4.14,9.91l-1.47,1.47c-.34.4-.52.86-.52,1.38v.86c0,.86.39,1.45,1.16,1.77.78.32,1.48.16,2.11-.47l7.84-7.76c.86-.92,1.9-1.38,3.1-1.38.8,0,.78.46-.09,1.38-.34.4-.72.86-1.12,1.38-.4.52-.6,1.09-.6,1.72v14.66c0,1.26.72,2.5,2.16,3.71,1.44,1.21,2.93,2.33,4.48,3.36.75.52,1.44,1.01,2.07,1.47.63.46,1.15.89,1.55,1.29l7.76,7.76c.4.4.6.86.6,1.38v6.98c0,3.16,1.09,5.83,3.28,8.02l2.41,2.33c.34.4.52.86.52,1.38v8.53c-.06.81.22,1.5.82,2.07.6.58,1.34.86,2.2.86,2.07,0,3.1-1.04,3.1-3.1Z"/>
  <path class="cls-1" d="M76.55,78.53c-1.44,1.44-2.16,3.19-2.16,5.26s.72,3.91,2.16,5.34l3.28,3.28c.52.52,1.12.78,1.81.78h2.67c1.67,0,2.5.81,2.5,2.41v13.62c0,1.67.83,2.5,2.5,2.5h2.67c.69,0,1.29-.26,1.81-.78l2.5-2.5c1.95-1.95,2.93-4.31,2.93-7.07v-7.76c0-.4.09-.78.26-1.12l5.69-11.38c.17-.29.26-.63.26-1.03v-3.19c0-1.61.8-2.41,2.41-2.41h1.21c1.67,0,2.5.81,2.5,2.41v1.21c0,1.67.83,2.5,2.5,2.5h1.12c1.67,0,2.5-.83,2.5-2.5v-1.21c0-1.61.83-2.41,2.5-2.41h1.21c1.67,0,2.5.81,2.5,2.41v1.21c0,1.67.8,2.5,2.41,2.5h6.98c1.15,0,1.92-.52,2.33-1.55l5.43-13.62c.34-.8.27-1.58-.22-2.33-.49-.75-1.16-1.12-2.03-1.12-1.67,0-2.5-.8-2.5-2.41v-7.41c0-1.67.83-2.5,2.5-2.5h1.12c1.67,0,2.5.83,2.5,2.5v.6c0,2.07,1.04,3.1,3.1,3.1s3.1-1.03,3.1-3.1v-12.07c0-2.64-.95-4.9-2.84-6.77-1.9-1.87-4.17-2.8-6.81-2.8h-.17c-1.67,0-2.5.81-2.5,2.41v1.21c0,1.67-.83,2.5-2.5,2.5h-7.41c-1.67,0-2.5-.83-2.5-2.5,0-1.03-.36-1.91-1.08-2.63-.72-.72-1.59-1.08-2.63-1.08h-2.5c-1.67,0-3.12.6-4.35,1.81-1.24,1.21-1.85,2.67-1.85,4.4v.17c0,.69-.26,1.32-.78,1.9l-10.86,9.74c-.46.4-1.03.6-1.72.6h-8.97c-1.61,0-2.41.83-2.41,2.5v1.21c0,1.61-.83,2.41-2.5,2.41h-1.21c-1.67,0-2.5.83-2.5,2.5v7.41c0,1.67.83,2.5,2.5,2.5h1.21c1.67,0,2.5.83,2.5,2.5v1.12c0,1.67-.83,2.5-2.5,2.5h-2.67l-.17.09c-.75.34-1.26.63-1.55.86l-3.28,3.28Z"/>
  <path class="cls-4" d="M124.05,90.17v-1.29c0-1.21.66-1.9,1.98-2.07h2.33c1.32,0,1.98.63,1.98,1.9,0,.92.4,1.54,1.21,1.85.8.32,1.49.16,2.07-.47l2.33-2.59c.4-.4.89-.6,1.47-.6h5.34c1.67,0,3.12.6,4.35,1.81,1.24,1.21,1.85,2.67,1.85,4.4v5.17c0,.63-.25,1.14-.73,1.51-.49.37-1.02.5-1.59.39l-1.38-.34c-1.67-.34-2.5-1.38-2.5-3.1,0-.98-.36-1.78-1.08-2.41-.72-.63-1.57-.92-2.54-.86l-.95.17c-1.09.12-1.64.75-1.64,1.9v2.33c0,1.03-.52,1.64-1.55,1.81-3.1.75-5.69-.14-7.76-2.67l-1.29-1.55c-1.26-1.55-1.9-3.3-1.9-5.26Z"/>
  <path class="cls-2" d="M133.45,118.1h12.41c2.07,0,3.1-1.03,3.1-3.1v-5.95c0-.98-.34-1.79-1.03-2.46-.69-.66-1.52-.99-2.5-.99h-10c-1.38,0-2.57.5-3.58,1.51s-1.51,2.23-1.51,3.66v4.22c0,2.07,1.03,3.1,3.1,3.1Z"/>
</svg>